<svg width="100%" height="100%" viewBox="0 0 24 24" version="1.1" xmlns="http://www.w3.org/2000/svg"
    xmlns:xlink="http://www.w3.org/1999/xlink" xml:space="preserve" xmlns:serif="http://www.serif.com/"
    style="fill-rule:evenodd;clip-rule:evenodd;stroke-linejoin:round;stroke-miterlimit:2;">
    <g transform="matrix(0.046875,0,0,0.046875,0,0)">
        <path
            d="M256,0C397.29,0 512,114.71 512,256C512,397.29 397.29,512 256,512C114.71,512 0,397.29 0,256C0,114.71 114.71,0 256,0ZM172.961,157.63L140.961,157.63L140.961,372.585L172.961,372.585L172.961,157.63ZM415.614,265.107C415.614,205.749 367.495,157.63 308.137,157.63L218,157.63L218,372.585L308.137,372.585C367.495,372.585 415.614,324.466 415.614,265.108L415.614,265.107ZM383.624,265.217C383.624,221.587 354.122,190.25 310.485,186.628C306.077,186.263 297.4,186.217 297.4,186.217L249.146,186.217L249.146,344.217L297.4,344.217C297.4,344.217 307.961,344.02 310.5,343.919C348.817,342.402 383.624,308.848 383.624,265.218L383.624,265.217ZM156.961,93.63C167.999,93.63 176.961,102.592 176.961,113.63C176.961,124.669 167.999,133.63 156.961,133.63C145.922,133.63 136.961,124.669 136.961,113.63C136.961,102.592 145.922,93.63 156.961,93.63Z"
            style="fill:rgb(218,218,218);" />
    </g>
</svg>