<svg width="100%" height="100%" viewBox="0 0 512 512" version="1.1" xmlns="http://www.w3.org/2000/svg"
    xmlns:xlink="http://www.w3.org/1999/xlink" xml:space="preserve" xmlns:serif="http://www.serif.com/"
    style="fill-rule:evenodd;clip-rule:evenodd;stroke-linejoin:round;stroke-miterlimit:2;">
    <g transform="matrix(1.246,0,0,1.246,-73.0162,-227.446)">
        <g transform="matrix(3.66202,8.42101e-17,-8.42101e-17,-2.97439,-913.57,1421.2)">
            <path
                d="M362.072,324.969C362.521,324.969 362.924,325.307 363.089,325.822C364.741,330.989 373.438,358.196 376.255,367.007C376.453,367.629 376.39,368.33 376.084,368.882C375.779,369.434 375.272,369.764 374.73,369.763C373.282,369.763 371.508,369.762 370.381,369.762C369.706,369.761 369.1,369.252 368.855,368.477C367.174,363.172 360.795,343.042 359.508,338.98C359.471,338.865 359.381,338.789 359.281,338.79C359.181,338.79 359.091,338.866 359.054,338.981C357.931,342.543 352.968,358.278 352.056,361.171C352.023,361.274 352.034,361.391 352.085,361.483C352.136,361.574 352.22,361.629 352.311,361.629C353.608,361.629 357.759,361.629 360.102,361.629C360.538,361.629 360.957,361.843 361.264,362.224C361.572,362.606 361.743,363.122 361.74,363.659C361.734,364.912 361.725,366.513 361.718,367.761C361.712,368.869 360.981,369.764 360.08,369.764C356.497,369.764 347.912,369.764 343.687,369.764C343.142,369.764 342.632,369.431 342.328,368.874C342.023,368.317 341.964,367.611 342.169,366.989C345.081,358.15 354.046,330.94 355.737,325.809C355.904,325.301 356.304,324.969 356.749,324.969C358.054,324.969 360.761,324.969 362.072,324.969Z"
                style="fill:rgb(50,50,50);" />
        </g>
        <g>
            <g transform="matrix(-1.09635,0,0,-2.46987,532.449,1396.17)">
                <path
                    d="M244.337,381.22C244.731,381.202 245.123,381.258 245.417,381.376C245.71,381.494 245.878,381.661 245.877,381.837C245.875,383.262 245.857,387.743 245.848,390.007C245.846,390.364 245.772,390.77 242.73,391.11C242.73,391.111 223.553,394.325 220.115,399.807C220.02,399.959 219.611,400.8 218.232,400.801C213.9,400.801 204.376,400.802 199.848,400.803C199.249,400.803 198.684,400.678 198.323,400.466C197.963,400.253 197.849,399.977 198.016,399.722C198.016,399.722 198.017,399.722 198.017,399.722C204.378,389.965 222.082,382.534 244.298,381.221C244.309,381.22 244.322,381.22 244.337,381.22Z"
                    style="fill:rgb(50,50,50);" />
            </g>
            <g transform="matrix(-1.09635,0,0,2.46987,533.212,-620.167)">
                <path
                    d="M244.337,381.22C244.731,381.202 245.123,381.258 245.417,381.376C245.71,381.494 245.878,381.661 245.877,381.837C245.875,383.262 245.857,387.743 245.848,390.007C245.846,390.364 245.772,390.77 242.73,391.11C242.73,391.111 223.553,394.325 220.115,399.807C220.02,399.959 219.611,400.8 218.232,400.801C213.9,400.801 204.376,400.802 199.848,400.803C199.249,400.803 198.684,400.678 198.323,400.466C197.963,400.253 197.849,399.977 198.016,399.722C198.016,399.722 198.017,399.722 198.017,399.722C204.378,389.965 222.082,382.534 244.298,381.221C244.309,381.22 244.322,381.22 244.337,381.22Z"
                    style="fill:rgb(50,50,50);" />
            </g>
            <g transform="matrix(1.09635,0,0,2.46987,-19.6447,-620.177)">
                <path
                    d="M244.337,381.22C244.731,381.202 245.123,381.258 245.417,381.376C245.71,381.494 245.878,381.661 245.877,381.837C245.875,383.262 245.857,387.743 245.848,390.007C245.846,390.364 245.523,390.706 244.95,390.957C244.377,391.208 243.601,391.347 242.796,391.343C242.796,391.343 242.796,391.343 242.795,391.343C233.192,391.292 217.793,398.221 218.009,407.74C218.273,419.357 234.277,425.65 243.496,424.613C243.496,424.613 243.497,424.613 243.497,424.613C244.027,424.553 244.589,424.605 245.02,424.754C245.451,424.903 245.703,425.133 245.702,425.375C245.694,427.354 245.678,431.193 245.671,433.038C245.669,433.349 245.362,433.645 244.828,433.846C244.295,434.048 243.589,434.136 242.897,434.087C242.897,434.087 242.896,434.087 242.895,434.087C215.568,432.154 195.475,421.015 195.475,407.74C195.475,394.243 216.303,382.876 244.298,381.221C244.309,381.22 244.322,381.22 244.337,381.22Z"
                    style="fill:rgb(50,50,50);" />
            </g>
        </g>
        <g>
            <g transform="matrix(1.00215,0,0,1.01683,-0.742975,100.091)">
                <path
                    d="M163.806,327.781C163.806,324.522 161.125,321.88 157.819,321.88C140.053,321.88 87.773,321.88 70.008,321.88C66.701,321.88 64.021,324.522 64.021,327.781C64.021,331.652 64.021,336.694 64.021,340.565C64.021,343.824 66.701,346.466 70.008,346.466C87.773,346.466 140.053,346.466 157.819,346.466C161.125,346.466 163.806,343.824 163.806,340.565C163.806,336.694 163.806,331.652 163.806,327.781Z"
                    style="fill:rgb(50,50,50);" />
            </g>
            <g transform="matrix(0.932004,0,0,1.01683,3.74813,47.0906)">
                <path
                    d="M163.806,327.781C163.806,324.522 161.125,321.88 157.819,321.88C140.053,321.88 87.773,321.88 70.008,321.88C66.701,321.88 64.021,324.522 64.021,327.781C64.021,331.652 64.021,336.694 64.021,340.565C64.021,343.824 66.701,346.466 70.008,346.466C87.773,346.466 140.053,346.466 157.819,346.466C161.125,346.466 163.806,343.824 163.806,340.565C163.806,336.694 163.806,331.652 163.806,327.781Z"
                    style="fill:rgb(50,50,50);" />
            </g>
            <g transform="matrix(1.00215,0,0,1.01683,-0.742975,-5.90944)">
                <path
                    d="M163.806,327.781C163.806,324.522 161.125,321.88 157.819,321.88C140.053,321.88 87.773,321.88 70.008,321.88C66.701,321.88 64.021,324.522 64.021,327.781C64.021,331.652 64.021,336.694 64.021,340.565C64.021,343.824 66.701,346.466 70.008,346.466C87.773,346.466 140.053,346.466 157.819,346.466C161.125,346.466 163.806,343.824 163.806,340.565C163.806,336.694 163.806,331.652 163.806,327.781Z"
                    style="fill:rgb(50,50,50);" />
            </g>
        </g>
    </g>
</svg>